<svg xmlns="http://www.w3.org/2000/svg" xmlns:xlink="http://www.w3.org/1999/xlink" width="401.293" height="268" viewBox="0 0 401.293 268">
  <defs>
    <linearGradient id="linear-gradient" x1="0.462" y1="0.919" x2="0.5" gradientUnits="objectBoundingBox">
      <stop offset="0" stop-color="#ff4e95"/>
      <stop offset="1" stop-color="#fa8b0c"/>
    </linearGradient>
    <linearGradient id="linear-gradient-2" x1="0.5" x2="0.5" y2="1" gradientUnits="objectBoundingBox">
      <stop offset="0" stop-color="#30cdff"/>
      <stop offset="1" stop-color="#4353ff"/>
    </linearGradient>
    <linearGradient id="linear-gradient-5" x1="0.824" y1="1" x2="0.303" y2="0.037" gradientUnits="objectBoundingBox">
      <stop offset="0" stop-color="#ff3e37"/>
      <stop offset="1" stop-color="#ffc756"/>
    </linearGradient>
    <linearGradient id="linear-gradient-6" x1="0.621" y1="0.032" x2="0.163" xlink:href="#linear-gradient-2"/>
    <linearGradient id="linear-gradient-7" x1="0.5" y1="0" x2="0.5" y2="1" xlink:href="#linear-gradient"/>
  </defs>
  <g id="Group_4507" data-name="Group 4507" transform="translate(-1209.99 -13243)">
    <g id="Group_4491" data-name="Group 4491" transform="translate(1299.453 13299.458)">
      <g id="Group_4486" data-name="Group 4486" transform="translate(0 79.151)">
        <g id="Group_4484" data-name="Group 4484" transform="translate(1.284 84.18)">
          <path id="Path_4483" data-name="Path 4483" d="M579.805,136.28a134.767,134.767,0,0,0,22.655,27.738v10.064h-22.5s-7.111-3.828-21.358-14.715C558.6,159.368,553.927,128.235,579.805,136.28Z" transform="translate(-438.318 -134.952)" fill="#f49187"/>
          <path id="Path_4484" data-name="Path 4484" d="M636.56,153.618s1.049,19.975,6.042,21.223,25.454-17.278,25.454-17.278l2.327-8.839-15.159-11.058S637.176,143.215,636.56,153.618Z" transform="translate(-636.56 -133.148)" fill="#f49187"/>
        </g>
        <g id="Group_4485" data-name="Group 4485">
          <path id="Path_4485" data-name="Path 4485" d="M573.073,189.031c4.794-9.155,34.34-2.5,34.34-2.5L586.39,207.69h94.48c-3.129-10.886-1.265-37.386-1.265-37.386.017.2.05.383.083.583,1.382,10.637,7.008,16.263,7.008,16.263.4,5.426,6.658,5.826,6.658,5.826a36.787,36.787,0,0,1,3.213-12c6.142-12.7,17.994-11.086,17.994-11.086,1.265-6.658-5.826-8.323-5.826-8.323s-8.722-50.769-21.423-60.756S653.9,85.828,653.9,85.828L632.581,84.38s-41.814,8.323-50.136,22.671-6.875,68.663-6.875,68.663C568.912,181.124,573.073,189.031,573.073,189.031Z" transform="translate(-571.789 -84.38)" fill="url(#linear-gradient)"/>
          <path id="Path_4487" data-name="Path 4487" d="M582.69,151.063c1.382,10.637,7.008,16.263,7.008,16.263.4,5.426,6.658,5.826,6.658,5.826a36.786,36.786,0,0,1,3.213-12,35.233,35.233,0,0,1-9.255-15.381c-4.411-14.582-1.6-30.428-1.4-31.56C585.32,127.843,583.356,144.572,582.69,151.063Z" transform="translate(-474.791 -64.556)" fill="#f6613a" opacity="0.5"/>
        </g>
      </g>
      <path id="Path_4488" data-name="Path 4488" d="M679.711,156.663s-23.512-16.437-43.487-9.779-18.31,20.391-11.86,22.888h49.8Z" transform="translate(-617.038 35.253)" fill="#feb19e"/>
      <g id="Group_4487" data-name="Group 4487" transform="translate(53.249)">
        <path id="Path_4489" data-name="Path 4489" d="M603.75,96.453s4.894,27.465,19.459,27.615c12.717.117,9.771-16.562,8.822-20.807-.133-.633-.233-.982-.233-.982l5.277-20.108L609.06,67.34l-.566,3.079v.05Z" transform="translate(-600.601 -16.553)" fill="#feb19e"/>
        <path id="Path_4490" data-name="Path 4490" d="M627.635,103.261c-.133-.633-.233-.982-.233-.982l5.277-20.108L604.664,67.34l-.566,3.079v.05C600.419,103.261,627.119,103.261,627.635,103.261Z" transform="translate(-596.205 -16.553)" fill="#ff947d"/>
        <path id="Path_4491" data-name="Path 4491" d="M588.121,77.792a49.189,49.189,0,0,1-4.578-16.334c-.832-8.531,1.56-10.507,5.1-10.507,0,0,1.873-9.676,6.347-13.005s22.68,1.561,29.649,5.723,12.068-7.3,15.294-6.825,3.849,9.322,1.352,13.275c0,0,5.826-3.226,6.763-6.555s7.594,2.7,5.2,15.086S645.34,72.59,645.34,72.59,644.3,85.7,633.583,87.155s-39.012-1.04-39.012-1.04Z" transform="translate(-583.377 -36.829)" fill="#120f3b"/>
        <path id="Path_4492" data-name="Path 4492" d="M644.3,61.034s-5.2,35.58-18.31,40.157S601.92,91.775,600.255,88.03s-2.365-11.6-2.365-11.6-4.466,1.037-4.987-6.87,6.347-12.587,8.011,1.04c0,0,6.415-3.537,4.473-15.605,0,0,7.352,6.936,17.616,6.936S624.391,55,624.391,55,631.742,61.8,644.3,61.034Z" transform="translate(-589.721 -24.754)" fill="#ffc1b2"/>
      </g>
      <g id="Group_4490" data-name="Group 4490" transform="translate(25.914 184.905)">
        <g id="Group_4488" data-name="Group 4488" transform="translate(0 4.584)">
          <rect id="Rectangle_1558" data-name="Rectangle 1558" width="85.447" height="4.578" transform="translate(0 10.958)" fill="#abe7f7"/>
          <rect id="Rectangle_1559" data-name="Rectangle 1559" width="26.355" height="4.578" transform="translate(0 10.958)" fill="#70b2dd"/>
          <path id="Path_4493" data-name="Path 4493" d="M613.25,161.763s7.557-11.276,18.893-11.094c8.578.137,8.9,5.546,8.9,5.546s5.636-.671,5.781,5.548Z" transform="translate(-598.824 -150.667)" fill="#ffc7ae"/>
        </g>
        <g id="Group_4489" data-name="Group 4489" transform="translate(100.711)">
          <path id="Path_4494" data-name="Path 4494" d="M549.817,162.9s-.416-6.242,2.357-7.074,4.855,1.525,4.855,1.525,2.081-9.155,9.849-9.431,21.777,7.629,13.177,14.981Z" transform="translate(-529.847 -147.913)" fill="#feb19e"/>
          <path id="Path_4495" data-name="Path 4495" d="M550.42,159.483a2.565,2.565,0,0,0,2.563,2.563h46.741a2.563,2.563,0,1,0,0-5.127H552.984A2.565,2.565,0,0,0,550.42,159.483Z" transform="translate(-550.42 -141.927)" fill="#70b2dd"/>
          <path id="Path_4496" data-name="Path 4496" d="M550.42,159.483a2.564,2.564,0,0,0,2.563,2.563h32.875a2.563,2.563,0,1,0,0-5.127H552.983A2.564,2.564,0,0,0,550.42,159.483Z" transform="translate(-536.554 -141.927)" fill="#abdaf7"/>
        </g>
      </g>
    </g>
    <g id="Group_4493" data-name="Group 4493" transform="translate(1450.617 13384.086)">
      <path id="Path_4498" data-name="Path 4498" d="M523.789,117.537c-.9,5.461,1.062,10.335,4.388,10.885s6.753-3.432,7.657-8.9-1.064-10.334-4.388-10.883S524.691,112.076,523.789,117.537Z" transform="translate(-463.703 -73.766)" fill="#fff" stroke="#f230db" stroke-miterlimit="10" stroke-width="1"/>
      <path id="Path_4499" data-name="Path 4499" d="M499.453,179.57h88.737a9.523,9.523,0,0,0,8.822-6.009c10.387-25.934,18.06-51.152,21.173-75.171a9.5,9.5,0,0,0-9.421-10.72H518.812a9.476,9.476,0,0,0-9.371,8.09c-3.379,22.255-9.987,46.108-18.943,71.16A9.488,9.488,0,0,0,499.453,179.57Z" transform="translate(-489.942 -87.67)" opacity="0.74" fill="url(#linear-gradient-2)"/>
      <path id="Path_4500" data-name="Path 4500" d="M499.443,179.57h85.142a9.523,9.523,0,0,0,8.822-6.009c10.387-25.934,18.06-51.152,21.173-75.171a9.5,9.5,0,0,0-9.421-10.72H518.818a9.505,9.505,0,0,0-9.388,8.09c-3.362,22.255-9.971,46.108-18.926,71.16A9.479,9.479,0,0,0,499.443,179.57Z" transform="translate(-486.336 -87.67)" fill="url(#linear-gradient-2)"/>
      <g id="Group_4492" data-name="Group 4492" transform="translate(17.479 76.903)">
        <path id="Path_4501" data-name="Path 4501" d="M523.333,177.365h34.09a11.617,11.617,0,0,0,10.969-7.823l10.2-35.655c-5.643.017-11.186-.017-16.629-.017-1.814,0-3.629,0-5.426.017l-8.123,27.732a9.2,9.2,0,0,1-7.191,5.909l-12.75,2a5.272,5.272,0,0,0-4.328,4.078Z" transform="translate(-523.333 -133.87)" fill="url(#linear-gradient-2)"/>
        <path id="Path_4502" data-name="Path 4502" d="M533.323,167.527l2.88-.266a10.821,10.821,0,0,0,9.105-6.725l8.756-26.666c-1.814,0-3.629,0-5.427.017l-8.123,27.732A9.2,9.2,0,0,1,533.323,167.527Z" transform="translate(-515.429 -133.87)" fill="#90c6e0" opacity="0.35" style="mix-blend-mode: multiply;isolation: isolate"/>
      </g>
      <path id="Path_4503" data-name="Path 4503" d="M523.605,117.962c-1.263,5.272.354,10.179,3.614,10.959s6.926-2.858,8.19-8.131-.353-10.179-3.612-10.959S524.87,112.688,523.605,117.962Z" transform="translate(-462.834 -73.014)" fill="#fff"/>
    </g>
    <g id="Group_4494" data-name="Group 4494" transform="translate(1213.497 13504.483)">
      <rect id="Rectangle_1560" data-name="Rectangle 1560" width="397.786" height="6.517" rx="3.258" transform="translate(0)" fill="#834eff"/>
    </g>
    <g id="Group_4495" data-name="Group 4495" transform="translate(1236.256 13437.052)">
      <path id="Path_4504" data-name="Path 4504" d="M678.75,149.219l3.884-24.136,12.345,1.526L690.4,150.6Z" transform="translate(-664.708 -115.771)" fill="#ff8f1e"/>
      <path id="Path_4505" data-name="Path 4505" d="M702.685,150.718,698.41,120.93a1.68,1.68,0,0,0-1.939-1.418h0a1.68,1.68,0,0,0-1.383,1.911l4.742,30.821h-1.8l-6.357-23.613a1.724,1.724,0,0,0-2.081-1.223h0a1.722,1.722,0,0,0-1.249,2.107l5.941,22.73,5.964,2.773Z" transform="translate(-688.285 -119.489)" fill="#00c5bc"/>
      <path id="Path_4506" data-name="Path 4506" d="M679.25,138.25v30.728a4.926,4.926,0,0,0,4.927,4.927h17.749a4.927,4.927,0,0,0,4.927-4.927V138.25Z" transform="translate(-677.414 -107.021)" fill="#ff346b"/>
    </g>
    <g id="Group_4503" data-name="Group 4503" transform="translate(1515.939 13257.835)">
      <path id="Path_4512" data-name="Path 4512" d="M229.649,65.828A23.513,23.513,0,1,1,262.321,87.49l7.043,8.885-22-7.756A23.523,23.523,0,0,1,229.649,65.828Z" transform="translate(-229.649 -42.315)" fill="url(#linear-gradient-5)"/>
      <path id="Path_4513" data-name="Path 4513" d="M242.684,78.368a21.592,21.592,0,1,0-30,19.892l-6.468,8.16,20.2-7.124A21.6,21.6,0,0,0,242.684,78.368Z" transform="translate(-151.941 -35.808)" fill="url(#linear-gradient-6)"/>
      <g id="Group_4501" data-name="Group 4501" transform="translate(14.874 21.855)">
        <ellipse id="Ellipse_362" data-name="Ellipse 362" cx="1.994" cy="1.994" rx="1.994" ry="1.994" transform="translate(0)" fill="#fff"/>
        <ellipse id="Ellipse_363" data-name="Ellipse 363" cx="1.994" cy="1.994" rx="1.994" ry="1.994" transform="translate(6.646)" fill="#fff"/>
        <ellipse id="Ellipse_364" data-name="Ellipse 364" cx="1.994" cy="1.994" rx="1.994" ry="1.994" transform="translate(13.291)" fill="#fff"/>
      </g>
      <g id="Group_4502" data-name="Group 4502" transform="translate(60.511 39.787)">
        <ellipse id="Ellipse_365" data-name="Ellipse 365" cx="1.994" cy="1.994" rx="1.994" ry="1.994" transform="translate(0)" fill="#fff"/>
        <ellipse id="Ellipse_366" data-name="Ellipse 366" cx="1.994" cy="1.994" rx="1.994" ry="1.994" transform="translate(6.646)" fill="#fff"/>
        <ellipse id="Ellipse_367" data-name="Ellipse 367" cx="1.994" cy="1.994" rx="1.994" ry="1.994" transform="translate(13.291)" fill="#fff"/>
      </g>
    </g>
    <g id="Group_4506" data-name="Group 4506" transform="translate(1427.687 13243)">
      <path id="Path_4514" data-name="Path 4514" d="M96.735,40.268A4.955,4.955,0,0,0,93.873,35.5a4.726,4.726,0,0,0-2.165-.454c-3.04.014-6.081,0-9.121.006-13.045,0-42.709,0-43.573,0a.173.173,0,0,0-.226,0A4.886,4.886,0,0,0,34.3,38.594a5.264,5.264,0,0,0-.171,1.492q-.013,18.444-.007,36.888a4.824,4.824,0,0,0,2.583,4.51,3.6,3.6,0,0,0,1.823.524,1.086,1.086,0,0,0,.311.019,59.206,59.206,0,0,1,5.924.136c3.908.246,22.489.118,26.216.114a2.575,2.575,0,0,1,1.863.742,8.981,8.981,0,0,0,1.5,1.2Q77.9,87.247,81.5,90.234c.213.178.451.464.719.046a2.223,2.223,0,0,0,.068-.827c0-2.137,0-4.274,0-6.411,0-.688.058-.743.744-.744,2.815-.005,5.63,0,8.445-.005a5.688,5.688,0,0,0,1.948-.283,5.215,5.215,0,0,0,3.556-4.953c.025-1.059.006-2.12.006-3.179q0-9.045,0-18.087C96.981,53.761,96.745,41.866,96.735,40.268Z" transform="translate(-34.121 -35.006)" opacity="0.2" fill="url(#linear-gradient-7)"/>
      <path id="Path_4515" data-name="Path 4515" d="M41.109,43.826c.829.6,1.648,1.219,2.482,1.816q1.491,1.067,2.987,2.123c.605.463,1.249.875,1.863,1.328,1.145.844,2.308,1.663,3.473,2.485.456.326.91.657,1.368.982q1.5,1.071,3.007,2.133,2.791,2,5.58,3.989.685.493,1.369.989c.106.081.213.163.315.248a.484.484,0,0,0,.7,0c.1-.085.21-.166.315-.248l1.369-.989q2.789-2,5.581-3.989,1.5-1.065,3.007-2.133c.456-.325.912-.655,1.368-.982,1.163-.822,2.327-1.641,3.474-2.485.613-.453,1.255-.865,1.863-1.328q1.493-1.058,2.985-2.123c.794-.568,1.578-1.153,2.366-1.731a1.454,1.454,0,0,0-.139-.139,1.536,1.536,0,0,0-1.019-.388H42.187a1.543,1.543,0,0,0-.927.31A1.372,1.372,0,0,0,41.109,43.826Z" transform="translate(-32.371 -32.908)" fill="#efd000"/>
      <path id="Path_4516" data-name="Path 4516" d="M40.736,44.867V70.034a1.548,1.548,0,0,0,1.544,1.544H85.518a1.548,1.548,0,0,0,1.544-1.544V44.867a1.536,1.536,0,0,0-.386-1.018,1.455,1.455,0,0,0-.139-.139c-.983.72-1.986,1.414-2.977,2.122q-.989.7-1.973,1.409c-.25.158-.486.336-.722.515q-4.121,2.943-8.241,5.885-3.346,2.382-6.668,4.8c-.5.359-1.035.662-1.5,1.062a.612.612,0,0,1-.917,0c-.465-.4-1-.7-1.5-1.062q-3.326-2.41-6.669-4.8-4.123-2.937-8.241-5.885c-.235-.179-.473-.358-.722-.515q-.987-.705-1.975-1.409c-1.027-.732-2.065-1.451-3.081-2.2a1.373,1.373,0,0,0-.151.131A1.541,1.541,0,0,0,40.736,44.867Z" transform="translate(-32.464 -32.845)" fill="#ff9a00"/>
      <ellipse id="Ellipse_368" data-name="Ellipse 368" cx="7.307" cy="7.307" rx="7.307" ry="7.307" transform="translate(4.331 3.17)" fill="#ff005c"/>
      <g id="Group_4505" data-name="Group 4505" transform="translate(9.479 7.51)">
        <path id="Path_4517" data-name="Path 4517" d="M41.7,46.947v-.979l.808-.709c1.185-1.023,1.787-1.634,1.8-2.226,0-.423-.279-.728-.872-.728a2.2,2.2,0,0,0-1.248.476l-.44-1.159a3.5,3.5,0,0,1,2.011-.61c1.357,0,2.165.737,2.165,1.886a3.089,3.089,0,0,1-1.357,2.253l-.574.449v.019h2.03v1.328Z" transform="translate(-41.701 -41.012)" fill="#fff"/>
      </g>
    </g>
    <g id="Group_4496" data-name="Group 4496" transform="translate(1209.99 13256.513)">
      <circle id="Ellipse_359" data-name="Ellipse 359" cx="39.267" cy="39.267" r="39.267" transform="translate(10.853 13.061)" opacity="0.11" fill="url(#linear-gradient-2)" style="mix-blend-mode: multiply;isolation: isolate"/>
      <circle id="Ellipse_360" data-name="Ellipse 360" cx="36.948" cy="36.948" r="36.948" transform="translate(0 32.629) rotate(-26.203)" fill="url(#linear-gradient-2)"/>
      <circle id="Ellipse_361" data-name="Ellipse 361" cx="29.576" cy="29.576" r="29.576" transform="translate(15.805 74.294) rotate(-81.414)" fill="#fff"/>
      <path id="Path_4507" data-name="Path 4507" d="M695.357,54.07H681.964v-18.1a2.585,2.585,0,1,0-5.17,0V58.818h18.563a2.374,2.374,0,0,0,0-4.747Z" transform="translate(-630.584 -5.839)" fill="#834eff"/>
    </g>
  </g>
</svg>
